<svg id="Capa_1" enable-background="new 0 0 511.846 511.846" height="512" viewBox="0 0 511.846 511.846" width="512" xmlns="http://www.w3.org/2000/svg"><g><path d="m230.251 48.25-182 182c-64.333 64.333-64.333 169.011 0 233.345 64.331 64.332 169.01 64.336 233.345 0l182-182c64.333-64.333 64.333-169.011 0-233.345-64.334-64.333-169.012-64.333-233.345 0zm30.131 394.132c-52.637 52.636-138.282 52.636-190.919 0-52.636-52.637-52.636-138.282 0-190.919l80.394-80.394 190.919 190.919zm182-182-80.394 80.394-190.918-190.919 80.394-80.394c52.636-52.635 138.281-52.637 190.919 0 52.636 52.637 52.636 138.283-.001 190.919z"/></g></svg>